<svg width="24" height="22" viewBox="0 0 24 22" fill="none" xmlns="http://www.w3.org/2000/svg">
<path d="M1.2 0.204785C0.88174 0.204785 0.576515 0.331213 0.351472 0.556256C0.126428 0.7813 0 1.08652 0 1.40478V8.00478C0 10.0328 1.236 11.7608 3 12.4688V20.0048C3 20.4822 3.18964 20.94 3.52721 21.2776C3.86477 21.6151 4.32261 21.8048 4.8 21.8048C5.27739 21.8048 5.73523 21.6151 6.07279 21.2776C6.41036 20.94 6.6 20.4822 6.6 20.0048V12.4688C8.364 11.7608 9.6 10.0328 9.6 8.00478V1.40478C9.6 1.08652 9.47357 0.7813 9.24853 0.556256C9.02348 0.331213 8.71826 0.204785 8.4 0.204785C8.08174 0.204785 7.77652 0.331213 7.55147 0.556256C7.32643 0.7813 7.2 1.08652 7.2 1.40478V6.20478C7.2 6.36391 7.13679 6.51653 7.02426 6.62905C6.91174 6.74157 6.75913 6.80478 6.6 6.80478C6.44087 6.80478 6.28826 6.74157 6.17574 6.62905C6.06321 6.51653 6 6.36391 6 6.20478V1.40478C6 1.08652 5.87357 0.7813 5.64853 0.556256C5.42348 0.331213 5.11826 0.204785 4.8 0.204785C4.48174 0.204785 4.17652 0.331213 3.95147 0.556256C3.72643 0.7813 3.6 1.08652 3.6 1.40478V6.20478C3.6 6.36391 3.53679 6.51653 3.42426 6.62905C3.31174 6.74157 3.15913 6.80478 3 6.80478C2.84087 6.80478 2.68826 6.74157 2.57574 6.62905C2.46321 6.51653 2.4 6.36391 2.4 6.20478V1.40478C2.4 1.08652 2.27357 0.7813 2.04853 0.556256C1.82348 0.331213 1.51826 0.204785 1.2 0.204785ZM21.456 0.204785C21.3 0.204785 21.144 0.312785 21 0.396785L16.8 2.90478V7.40478H12V9.80478H13.2L14.4 21.8048H21.6L22.8 9.80478H24V7.40478H19.2V4.21278L22.2 2.41278C22.8 2.07678 22.956 1.40478 22.608 0.804785C22.356 0.372785 21.912 0.144785 21.456 0.204785Z" fill="#0177B2"/>
</svg>
