<svg width="20" height="20" viewBox="0 0 20 20" fill="none" xmlns="http://www.w3.org/2000/svg">
<path fill-rule="evenodd" clip-rule="evenodd" d="M11.7657 3.35388C13.0619 1.86611 20 0 20 0C20 0 18.8207 7.44166 17.7831 8.63166C17.0104 9.51832 14.5481 8.96443 13.3416 8.62388C14.2435 7.23666 15.2887 5.88166 16.2077 4.80611C16.3015 4.69403 16.3474 4.54939 16.3355 4.40358C16.3235 4.25778 16.2547 4.12257 16.144 4.02733C16.0333 3.93208 15.8896 3.88448 15.7441 3.89487C15.5986 3.90525 15.463 3.97277 15.3668 4.08277C14.4401 5.16722 13.366 6.55499 12.4254 7.99777C11.897 7.0111 10.7398 4.53055 11.7657 3.35388ZM2.7697 13.3333H0V20H2.7697V18.865C3.33472 18.8416 4.16895 18.8116 4.45755 18.8233C5.44744 18.8639 6.18585 19.1005 6.93367 19.34C7.63052 19.5628 8.33458 19.7883 9.25578 19.8589C9.48733 19.8766 9.71278 19.8994 9.93159 19.9211C10.7198 20.0011 11.4195 20.0722 11.9978 19.8589C12.7356 19.5866 16.9533 17.5161 17.4807 16.9711C18.008 16.4266 17.7444 14.9555 16.1097 15.2278C15.3031 15.3622 14.3686 15.7489 13.5206 16.0994C12.6503 16.4589 11.8715 16.7811 11.4173 16.7533C10.521 16.6989 8.14901 16.2633 8.14901 16.2633L10.8727 16.2966C10.8727 16.2966 11.2577 16.3166 11.7867 15.9361C12.3157 15.5555 12.7883 14.465 11.9972 14.465C11.2068 14.465 10.3631 14.1928 10.3631 14.1928L6.9885 13.43C6.9885 13.43 5.82856 13.2122 5.35438 13.43C4.9633 13.6094 3.33361 14.195 2.7697 14.3966V13.3333ZM1.59424 2.03889C1.59424 2.03889 7.31921 3.57888 8.38942 4.80611C9.21645 5.75444 8.32516 7.72944 7.87647 8.57943C7.28829 7.65332 6.65339 6.75789 5.97424 5.89666C5.92918 5.83939 5.8733 5.79158 5.80982 5.75597C5.74633 5.72035 5.67647 5.69762 5.60422 5.68909C5.53198 5.68055 5.45877 5.68637 5.38876 5.70621C5.31876 5.72605 5.25334 5.75952 5.19623 5.80471C5.13913 5.84991 5.09146 5.90595 5.05595 5.96962C5.02044 6.03329 4.99778 6.10336 4.98926 6.17581C4.98075 6.24827 4.98655 6.32169 5.00633 6.3919C5.02611 6.46211 5.05949 6.52772 5.10456 6.58499C5.76469 7.4221 6.38149 8.2927 6.9525 9.19332C5.91774 9.47443 4.03324 9.86165 3.4239 9.16221C2.56751 8.17999 1.59424 2.03833 1.59424 2.03833V2.03889Z" fill="#0177B2"/>
</svg>
