<svg width="23" height="22" viewBox="0 0 23 22" fill="none" xmlns="http://www.w3.org/2000/svg">
<path d="M18.4 9.83333C18.4 8.7145 17.618 7.77883 16.5819 7.55367C16.9958 6.8525 17.25 6.04167 17.25 5.16667C17.25 2.593 15.1869 0.5 12.65 0.5C10.9066 0.5 9.4047 1.49983 8.625 2.95467C7.8453 1.49983 6.3434 0.5 4.6 0.5C2.0631 0.5 0 2.593 0 5.16667C0 6.219 0.3588 7.18033 0.93955 7.962C0.649209 8.17727 0.412876 8.45884 0.249657 8.78392C0.0864376 9.10901 0.000913818 9.4685 0 9.83333V19.1667C0 20.4535 1.03155 21.5 2.3 21.5H16.1C17.3685 21.5 18.4 20.4535 18.4 19.1667V16.0902L23 18.4235V10.2568L18.4 12.5902V9.83333ZM12.65 2.83333C13.9184 2.83333 14.95 3.87983 14.95 5.16667C14.95 6.4535 13.9184 7.5 12.65 7.5C11.3815 7.5 10.35 6.4535 10.35 5.16667C10.35 3.87983 11.3815 2.83333 12.65 2.83333ZM4.6 2.83333C5.86845 2.83333 6.9 3.87983 6.9 5.16667C6.9 6.4535 5.86845 7.5 4.6 7.5C3.33155 7.5 2.3 6.4535 2.3 5.16667C2.3 3.87983 3.33155 2.83333 4.6 2.83333Z" fill="#0177B2"/>
</svg>
