<svg width="16" height="20" viewBox="0 0 16 20" fill="none" xmlns="http://www.w3.org/2000/svg">
<path d="M6.5 10.9332H5.5C4.67 10.9332 4 10.2632 4 9.43317C4 8.60317 4.67 7.93317 5.5 7.93317H6.5V6.93317C6.5 6.10317 7.17 5.43317 8 5.43317C8.83 5.43317 9.5 6.10317 9.5 6.93317V7.93317H10.5C11.33 7.93317 12 8.60317 12 9.43317C12 10.2632 11.33 10.9332 10.5 10.9332H9.5V11.9332C9.5 12.7632 8.83 13.4332 8 13.4332C7.17 13.4332 6.5 12.7632 6.5 11.9332V10.9332ZM7.3 0.193171L1.3 2.44317C0.52 2.74317 0 3.48317 0 4.32317V9.02317C0 14.0732 3.41 18.7832 8 19.9332C12.59 18.7832 16 14.0732 16 9.02317V4.32317C15.9993 3.91623 15.8745 3.51919 15.6422 3.18506C15.4099 2.85092 15.0812 2.5956 14.7 2.45317L8.7 0.203171C8.25 0.0231713 7.75 0.0231713 7.3 0.193171Z" fill="#0177B2"/>
</svg>
