<svg width="24" height="20" viewBox="0 0 24 20" fill="none" xmlns="http://www.w3.org/2000/svg">
<path d="M21.6 17.1999H24V18.3999C24 18.7182 23.8736 19.0234 23.6485 19.2484C23.4235 19.4735 23.1183 19.5999 22.8 19.5999H1.2C0.88174 19.5999 0.576516 19.4735 0.351472 19.2484C0.126428 19.0234 0 18.7182 0 18.3999V17.1999H2.4V2.7999C2.4 1.4799 3.48 0.399902 4.8 0.399902H19.2C19.8365 0.399902 20.447 0.652759 20.8971 1.10285C21.3471 1.55293 21.6 2.16338 21.6 2.7999V17.1999ZM4.8 2.7999V13.5999H19.2V2.7999H4.8ZM9.6 15.9999V17.1999H14.4V15.9999H9.6Z" fill="#0177B2"/>
</svg>
