<svg width="22" height="16" viewBox="0 0 22 16" fill="none" xmlns="http://www.w3.org/2000/svg">
<path d="M12.733 15.0333C12.4663 14.7667 12.3383 14.4444 12.349 14.0667C12.3606 13.6889 12.4997 13.3667 12.7663 13.1L16.533 9.33333H1.66634C1.28856 9.33333 0.971675 9.20533 0.715675 8.94933C0.460564 8.69422 0.333008 8.37778 0.333008 8C0.333008 7.62222 0.460564 7.30533 0.715675 7.04933C0.971675 6.79422 1.28856 6.66667 1.66634 6.66667H16.533L12.733 2.86666C12.4663 2.6 12.333 2.28311 12.333 1.916C12.333 1.54978 12.4663 1.23333 12.733 0.966665C12.9997 0.699999 13.3166 0.566666 13.6837 0.566666C14.0499 0.566666 14.3663 0.699999 14.633 0.966665L20.733 7.06667C20.8663 7.2 20.961 7.34444 21.017 7.5C21.0721 7.65555 21.0997 7.82222 21.0997 8C21.0997 8.17778 21.0721 8.34444 21.017 8.5C20.961 8.65555 20.8663 8.8 20.733 8.93333L14.5997 15.0667C14.3552 15.3111 14.0499 15.4333 13.6837 15.4333C13.3166 15.4333 12.9997 15.3 12.733 15.0333Z" fill="white"/>
</svg>
