<svg width="25" height="24" viewBox="0 0 25 24" fill="none" xmlns="http://www.w3.org/2000/svg">
<path d="M1.77778 0.888889C1.77778 0.653141 1.87143 0.427048 2.03813 0.260349C2.20483 0.0936505 2.43092 0 2.66667 0H22.2222C22.458 0 22.6841 0.0936505 22.8508 0.260349C23.0175 0.427048 23.1111 0.653141 23.1111 0.888889C23.1111 1.12464 23.0175 1.35073 22.8508 1.51743C22.6841 1.68413 22.458 1.77778 22.2222 1.77778H19.5556C19.5556 2.272 19.1964 2.66667 18.7467 2.66667H18.2222V5.41333C18.9778 5.61778 19.5378 6.32 19.5378 7.13778C19.5378 7.75644 19.2178 8.304 18.7351 8.62222L19.5529 9.77778H23.5431C23.6624 9.77682 23.7773 9.82294 23.8629 9.90615C23.9484 9.98935 23.9977 10.1029 24 10.2222C24 10.2809 23.9884 10.339 23.9658 10.3931C23.9433 10.4473 23.9102 10.4964 23.8686 10.5378C23.8269 10.5791 23.7775 10.6117 23.7232 10.6339C23.6688 10.656 23.6107 10.6671 23.552 10.6667H23.1111V13.3333H23.5431C23.6624 13.3324 23.7773 13.3785 23.8629 13.4617C23.9484 13.5449 23.9977 13.6585 24 13.7778C23.9977 13.8971 23.9484 14.0107 23.8629 14.0939C23.7773 14.1771 23.6624 14.2232 23.5431 14.2222H22.6382C22.6505 14.3035 22.6397 14.3867 22.607 14.4621C22.5743 14.5376 22.5211 14.6023 22.4533 14.6489C22.3733 14.7022 22.2844 14.7289 22.1956 14.7289C22.0533 14.7289 21.92 14.6667 21.8311 14.5422L21.6044 14.2222H13.9156L13.6889 14.5422C13.6 14.6667 13.4667 14.7289 13.3244 14.7289C13.2356 14.7289 13.1467 14.7022 13.0667 14.6489C12.9989 14.6023 12.9457 14.5376 12.913 14.4621C12.8803 14.3867 12.8695 14.3035 12.8818 14.2222H12.0124C11.8931 14.2232 11.7782 14.1771 11.6927 14.0939C11.6072 14.0107 11.5579 13.8971 11.5556 13.7778C11.5556 13.5342 11.7618 13.3333 12.0124 13.3333H12.4444V10.6667H12.0124C11.8931 10.6676 11.7782 10.6215 11.6927 10.5383C11.6072 10.4551 11.5579 10.3415 11.5556 10.2222C11.5556 9.97867 11.7618 9.77778 12.0124 9.77778H15.968L16.7858 8.62222C16.5394 8.46064 16.337 8.24043 16.1968 7.98134C16.0565 7.72225 15.9828 7.43239 15.9822 7.13778C15.9822 6.88889 16.1867 6.69333 16.4267 6.69333C16.6756 6.69333 16.8711 6.88889 16.8711 7.13778C16.8711 7.45778 17.0427 7.74044 17.2987 7.89689L17.3742 7.79022C17.3936 7.75765 17.4173 7.72777 17.4444 7.70133C17.4856 7.6595 17.5347 7.62637 17.5889 7.60392C17.6432 7.58147 17.7013 7.57016 17.76 7.57067C17.8756 7.56978 17.9911 7.61511 18.0756 7.70133C18.103 7.72772 18.127 7.75761 18.1467 7.79022L18.2213 7.89689C18.4773 7.74044 18.6489 7.45778 18.6489 7.13778C18.6489 6.64889 18.2667 6.25778 17.7778 6.24889C17.6267 6.24889 17.4844 6.16889 17.4044 6.04444C17.3519 5.97555 17.3237 5.89111 17.3244 5.80444C17.3244 5.76889 17.3244 5.74222 17.3333 5.70667V2.66667H16.8089C16.3591 2.66667 16 2.272 16 1.77778H10.6667V20.4444H11.3333C11.9467 20.4444 12.4444 20.9422 12.4444 21.5556V22.2222H23.12C24.0978 22.2222 24.8889 23.0178 24.8889 24H0C0 23.0178 0.791111 22.2222 1.76889 22.2222H2.66667V21.5556C2.66667 20.9422 3.16444 20.4444 3.77778 20.4444H4.44444V1.77778H2.66667C2.43092 1.77778 2.20483 1.68413 2.03813 1.51743C1.87143 1.35073 1.77778 1.12464 1.77778 0.888889ZM5.33333 3.55556V5.50311L9.22844 3.55556H5.33333ZM5.88267 20.4444H9.77778V18.4969L5.88267 20.4444ZM9.22844 17.7778H5.33333V19.7253L9.22844 17.7778ZM5.88267 6.22222H9.77778V4.27467L5.88267 6.22222ZM9.22844 7.11111H5.33333V9.05867L9.22844 7.11111ZM5.88267 9.77778H9.77778V7.83022L5.88267 9.77778ZM9.22844 10.6667H5.33333V12.6142L9.22844 10.6667ZM5.88267 13.3333H9.77778V11.3858L5.88267 13.3333ZM9.22844 14.2222H5.33333V16.1698L9.22844 14.2222ZM5.88267 16.8889H9.77778V14.9413L5.88267 16.8889ZM17.6729 8.91378L17.0613 9.77778H18.4587L17.8471 8.91378C17.7891 8.91664 17.7309 8.91664 17.6729 8.91378ZM15.3378 10.6667H13.3333V13.3333H13.4507L15.3378 10.6667ZM14.5449 13.3333H20.9751L19.088 10.6667H16.432L14.5449 13.3333ZM20.1813 10.6667L22.0693 13.3333H22.2222V10.6667H20.1813Z" fill="#0177B2"/>
</svg>
